<?xml version="1.0" encoding="utf-8"?>
<!-- Generator: Adobe Illustrator 26.1.0, SVG Export Plug-In . SVG Version: 6.00 Build 0)  -->
<svg version="1.1" id="Слой_1" xmlns="http://www.w3.org/2000/svg" xmlns:xlink="http://www.w3.org/1999/xlink" x="0px" y="0px"
	 viewBox="0 0 50 15" style="enable-background:new 0 0 50 15;" xml:space="preserve">
<style type="text/css">
	.st0{fill:#1C1917;}
</style>
<g>
	<g>
		<path class="st0" d="M4.7,4.7V1.8h2.3V0.2H0v1.7h2.3v2.8h1.4C4,4.7,4.3,4.7,4.7,4.7z"/>
		<path class="st0" d="M9.1,8.1h1l0-0.1V0.2H7.8v5.9C8.4,6.6,8.8,7.3,9.1,8.1z"/>
		<path class="st0" d="M13.6,4.6V4c0-0.1,0-0.3,0-0.4c0-0.1,0-0.2,0-0.4h0.1c0,0.1,0.1,0.2,0.1,0.3c0,0.1,0.1,0.2,0.1,0.3l0.4,0.7h1
			h0.6l0.2,0.6l1,2.4V7.5v-2V4.7H18h0.6V0.2h-1.9v4.3c0,0.1,0,0.2,0,0.3s0,0.2,0,0.3h0c0-0.1-0.1-0.2-0.1-0.3c0-0.1-0.1-0.2-0.1-0.3
			l-2.2-4.3h-2.6v4.5h0.5L13.6,4.6L13.6,4.6z"/>
		<polygon class="st0" points="24.4,3.4 27.4,0.2 25,0.2 22.6,2.8 22.6,0.2 20.2,0.2 20.2,4.7 25.4,4.7 		"/>
		<path class="st0" d="M30.6,4.7V3.6c0-0.7,0.1-1.2,0.4-1.5c0.3-0.3,0.6-0.4,1.1-0.4s0.8,0.1,1.1,0.4s0.4,0.8,0.4,1.5v1.1h1.1h0.6
			l0.3,0.5l0.3,0.6C35.9,5.4,36,4.9,36,4.4V3.9c0-1.3-0.4-2.3-1.1-2.9c-0.7-0.6-1.7-1-2.8-1c-1.1,0-2.1,0.3-2.8,1s-1.1,1.6-1.1,2.9
			v0.5c0,0.1,0,0.2,0,0.3h1.7L30.6,4.7L30.6,4.7z"/>
		<polygon class="st0" points="39.8,4.7 40.7,4.7 40.7,5.2 42.7,5.2 42.7,3.6 39.7,3.6 39.7,1.8 43.1,1.8 43.1,0.2 37.3,0.2 
			37.3,4.7 37.5,4.7 		"/>
		<path class="st0" d="M49.1,5.2h0.6V3.6h-3.1V1.8H50V0.2h-5.8v4.5c0.5-0.1,1.1-0.2,1.7-0.2C47.1,4.5,48.2,4.7,49.1,5.2z"/>
	</g>
	<g>
		<g>
			<path class="st0" d="M7,6.7C6.1,5.9,5,5.6,3.6,5.6H0v9.3h3.6c1.4,0,2.5-0.4,3.4-1.1C8,13,8.4,11.9,8.4,10.5V9.9
				C8.4,8.5,8,7.4,7,6.7z M5.6,10.5c0,0.8-0.2,1.4-0.6,1.8c-0.4,0.4-0.9,0.6-1.4,0.6H2.8V7.5h0.8C4.1,7.5,4.6,7.6,5,8
				c0.4,0.4,0.6,1,0.6,1.8V10.5z"/>
		</g>
		<g>
			<path class="st0" d="M12.1,5.5l-3.7,9.3H11l0.6-1.7h3.8l0.6,1.7h3l-3.8-9.3C15.3,5.5,12.1,5.5,12.1,5.5z M12.3,11.3l0.9-2.6
				c0.1-0.1,0.1-0.3,0.1-0.4s0.1-0.3,0.1-0.4h0.1c0,0.1,0.1,0.3,0.1,0.4c0,0.1,0.1,0.3,0.1,0.4l1,2.6H12.3z"/>
		</g>
		<g>
			<polygon class="st0" points="18,7.5 20.7,7.5 20.7,14.8 23.5,14.8 23.5,7.5 26.1,7.5 26.1,5.6 18,5.6 			"/>
		</g>
		<g>
			<rect x="27.1" y="5.6" class="st0" width="2.8" height="9.3"/>
		</g>
		<g>
			<path class="st0" d="M37.5,10.5c0,0.2,0,0.3,0,0.4s0,0.2,0,0.4h0c0-0.2-0.1-0.3-0.1-0.4c0-0.1-0.1-0.2-0.2-0.3l-2.6-5h-3v9.3h2.3
				V10c0-0.2,0-0.3,0-0.4c0-0.1,0-0.3,0-0.4h0C34,9.3,34,9.4,34,9.5s0.1,0.2,0.2,0.4l2.5,4.9h3.1V5.6h-2.3V10.5z"/>
		</g>
		<g>
			<path class="st0" d="M50,8.5l0-0.1c0.1-0.9-0.3-1.7-1-2.2s-1.8-0.8-3.1-0.8c-1.4,0-2.5,0.4-3.4,1.1s-1.2,1.9-1.2,3.4v0.6
				c0,1.5,0.4,2.7,1.2,3.4s2,1.1,3.5,1.1c1,0,1.8-0.1,2.4-0.4s1.2-0.6,1.5-1V9.7h-4.1v1.9h1.3v1.1c-0.2,0.1-0.4,0.2-0.5,0.3
				s-0.4,0.1-0.7,0.1c-0.6,0-1-0.1-1.4-0.5s-0.5-0.9-0.5-1.7V9.5c0-0.8,0.2-1.4,0.4-1.7c0.3-0.3,0.7-0.5,1.2-0.5
				c0.5,0,0.9,0.1,1.1,0.3c0.2,0.2,0.3,0.5,0.3,0.9v0.1L50,8.5L50,8.5z"/>
		</g>
	</g>
</g>
</svg>
